<svg xmlns="http://www.w3.org/2000/svg">
  <symbol id="icon-1" viewBox="0 0 50 50">
    <path style="text-indent:0;text-align:start;line-height:normal;text-transform:none;block-progression:tb;-inkscape-font-specification:Bitstream Vera Sans" d="M 8.90625 8 A 1.0001 1.0001 0 0 0 8.0625 8.6875 L 2.15625 26.4375 A 1.0001 1.0001 0 0 0 2.125 26.53125 L 2.09375 26.5625 A 1.0001 1.0001 0 0 0 2.0625 26.625 L 2.0625 26.6875 A 1.0001 1.0001 0 0 0 2.03125 26.71875 A 1.0001 1.0001 0 0 0 2.03125 26.78125 A 1.0001 1.0001 0 0 0 2 26.8125 A 1.0001 1.0001 0 0 0 2 26.875 A 1.0001 1.0001 0 0 0 2 26.90625 A 1.0001 1.0001 0 0 0 2 27.46875 L 2 42 A 1.0001 1.0001 0 0 0 3 43 L 47 43 A 1.0001 1.0001 0 0 0 48 42 L 48 27.40625 A 1.0001 1.0001 0 0 0 47.96875 26.71875 A 1.0001 1.0001 0 0 0 47.9375 26.6875 L 47.9375 26.65625 A 1.0001 1.0001 0 0 0 47.875 26.53125 L 41.9375 8.6875 A 1.0001 1.0001 0 0 0 41 8 L 9 8 A 1.0001 1.0001 0 0 0 8.90625 8 z M 9.71875 10 L 40.28125 10 L 45.625 26 L 32 26 A 1.0001 1.0001 0 0 0 31 27 C 31 30.325562 28.325562 33 25 33 C 21.674438 33 19 30.325562 19 27 A 1.0001 1.0001 0 0 0 18 26 L 4.375 26 L 9.71875 10 z M 4 28 L 17.1875 28 C 17.703373 31.914318 20.948634 35 25 35 C 29.051366 35 32.296627 31.914318 32.8125 28 L 46 28 L 46 41 L 4 41 L 4 28 z" color="#000" overflow="visible" enable-background="accumulate" font-family="Bitstream Vera Sans"></path>
  </symbol>
</svg>
