<svg xmlns="http://www.w3.org/2000/svg">
  <symbol id="icon-1" viewBox="0 0 50 50">
    <path style="line-height:normal;text-indent:0;text-align:start;text-decoration-line:none;text-decoration-style:solid;text-decoration-color:#000;text-transform:none;block-progression:tb;isolation:auto;mix-blend-mode:normal" d="M 12 0 C 10.906937 0 10 0.9069372 10 2 L 10 4 L 4 4 C 2.9287826 4 2 4.805473 2 5.9570312 L 2 46.207031 C 2 46.78281 2.332053 47.335038 2.734375 47.619141 C 3.136697 47.903244 3.5737457 48 4 48 L 46 48 C 46.426254 48 46.863303 47.90324 47.265625 47.619141 C 47.667947 47.335038 48 46.78281 48 46.207031 L 48 5.9570312 C 48 4.9100728 47.153249 4 46.082031 4 L 40 4 L 40 2 C 40 0.9069372 39.093063 0 38 0 L 36 0 C 34.906937 0 34 0.9069372 34 2 L 34 4 L 16 4 L 16 2 C 16 0.9069372 15.093063 0 14 0 L 12 0 z M 12 2 L 14 2 L 14 8 L 12 8 L 12 2 z M 36 2 L 38 2 L 38 8 L 36 8 L 36 2 z M 4 6 L 10 6 L 10 8 C 10 9.0930628 10.906937 10 12 10 L 14 10 C 15.093063 10 16 9.0930628 16 8 L 16 6 L 34 6 L 34 8 C 34 9.0930628 34.906937 10 36 10 L 38 10 C 39.093063 10 40 9.0930628 40 8 L 40 6 L 46 6 L 46 13 L 4 13 L 4 6 z M 4 15 L 46 15 L 46 46 L 4 46 L 4 15 z M 32.701172 20.617188 L 32.160156 21.458984 L 24.015625 34.091797 L 18.669922 29.257812 L 17.929688 28.587891 L 16.587891 30.070312 L 17.330078 30.742188 L 24.419922 37.15625 L 33.839844 22.541016 L 34.382812 21.701172 L 32.701172 20.617188 z" color="#000" font-weight="400" font-family="sans-serif" white-space="normal" overflow="visible"></path>
  </symbol>
</svg>
