<svg fill="#c0392b" xmlns="http://www.w3.org/2000/svg" viewBox="0 0 50 50" enable-background="new 0 0 50 50">
    <path d="M 25 3 C 12.86158 3 3 12.86158 3 25 C 3 37.13842 12.86158 47 25 47 C 37.13842 47 47 37.13842 47 25 C 47 12.86158 37.13842 3 25 3 z M 25 5 C 36.05754 5 45 13.94246 45 25 C 45 36.05754 36.05754 45 25 45 C 13.94246 45 5 36.05754 5 25 C 5 13.94246 13.94246 5 25 5 z M 23.8125 14.3125 C 23.5125 14.3125 23.40625 14.4875 23.40625 14.6875 L 23.40625 28.1875 C 23.40625 28.4875 23.6125 28.59375 23.8125 28.59375 L 26.09375 28.59375 C 26.39375 28.59375 26.5 28.3875 26.5 28.1875 L 26.5 14.6875 C 26.5 14.3875 26.29375 14.3125 26.09375 14.3125 L 23.8125 14.3125 z M 23.8125 32.3125 C 23.5125 32.3125 23.40625 32.4875 23.40625 32.6875 L 23.40625 35.3125 C 23.40625 35.6125 23.6125 35.6875 23.8125 35.6875 L 26.1875 35.6875 C 26.4875 35.6875 26.59375 35.5125 26.59375 35.3125 L 26.59375 32.6875 C 26.59375 32.3875 26.3875 32.3125 26.1875 32.3125 L 23.8125 32.3125 z"></path>
</svg>
